solid CableClipExtra90
facet normal -1.1877329880544467e-15 6.313357796749011e-18 -1.0
  outer loop
    vertex 4.100000000000007 16.999999999999993 8.459899447643692e-15
    vertex -0.1999999999999963 15.5 1.0143911234199486e-14
    vertex -0.19999999999999982 17.000000000000004 8.733927992925537e-15
  endloop
endfacet
facet normal -1.1877329880544467e-15 6.313357796749011e-18 -1.0
  outer loop
    vertex -0.1999999999999963 15.5 1.0143911234199486e-14
    vertex 4.100000000000007 16.999999999999993 8.459899447643692e-15
    vertex 0.800000000000004 14.499999999999996 1.4373860958021334e-14
  endloop
endfacet
facet normal -1.1877329880544467e-15 6.313357796749011e-18 -1.0
  outer loop
    vertex 0.800000000000004 14.499999999999996 1.4373860958021334e-14
    vertex 4.100000000000007 16.999999999999993 8.459899447643692e-15
    vertex 2.3000000000000043 15.49999999999999 1.0143911234199486e-14
  endloop
endfacet
facet normal -1.1877329880544467e-15 6.313357796749011e-18 -1.0
  outer loop
    vertex 0.800000000000004 14.499999999999996 1.4373860958021334e-14
    vertex 2.3000000000000043 15.49999999999999 1.0143911234199486e-14
    vertex 1.3000000000000131 14.499999999999984 1.4373860958021334e-14
  endloop
endfacet
facet normal -1.1877329880544467e-15 6.313357796749011e-18 -1.0
  outer loop
    vertex 2.3000000000000043 15.49999999999999 1.0143911234199486e-14
    vertex 4.100000000000007 16.999999999999993 8.459899447643692e-15
    vertex 4.500000000000009 15.49999999999999 9.764133945822096e-15
  endloop
endfacet
facet normal -1.1877329880544467e-15 6.313357796749011e-18 -1.0
  outer loop
    vertex 4.500000000000009 15.49999999999999 9.764133945822096e-15
    vertex 4.100000000000007 16.999999999999993 8.459899447643692e-15
    vertex 4.100000000000009 17.99999999999999 8.459899447643692e-15
  endloop
endfacet
facet normal -1.1877329880544467e-15 6.313357796749011e-18 -1.0
  outer loop
    vertex 4.500000000000009 15.49999999999999 9.764133945822096e-15
    vertex 4.100000000000009 17.99999999999999 8.459899447643692e-15
    vertex 4.600000000000011 17.99999999999999 1.057487430955461e-14
  endloop
endfacet
facet normal -1.1877329880544467e-15 6.313357796749011e-18 -1.0
  outer loop
    vertex 4.500000000000009 15.49999999999999 9.764133945822096e-15
    vertex 4.600000000000011 17.99999999999999 1.057487430955461e-14
    vertex 4.59999999999999 -1.000000000000011 -4.229949723821846e-15
  endloop
endfacet
facet normal -1.1877329880544467e-15 6.313357796749011e-18 -1.0
  outer loop
    vertex 4.59999999999999 -1.000000000000011 -4.229949723821846e-15
    vertex 4.600000000000011 17.99999999999999 1.057487430955461e-14
    vertex 7.599999999999986 1.9999999999999656 5.639932965095795e-15
  endloop
endfacet
facet normal -1.1877329880544467e-15 6.313357796749011e-18 -1.0
  outer loop
    vertex 7.599999999999986 1.9999999999999656 5.639932965095795e-15
    vertex 4.600000000000011 17.99999999999999 1.057487430955461e-14
    vertex 7.600000000000011 15.000000000000007 1.973976537783528e-14
  endloop
endfacet
facet normal -1.1877329880544467e-15 6.313357796749011e-18 -1.0
  outer loop
    vertex 0.7999999999999862 2.4999999999999374 3.2703643094582664e-14
    vertex -0.20000000000001197 -3.524958103184872e-14 1.578384419929528e-14
    vertex -0.20000000000001478 1.4999999999999734 1.2963877716747384e-14
  endloop
endfacet
facet normal -1.1877329880544467e-15 6.313357796749011e-18 -1.0
  outer loop
    vertex -0.20000000000001197 -3.524958103184872e-14 1.578384419929528e-14
    vertex 0.7999999999999862 2.4999999999999374 3.2703643094582664e-14
    vertex 4.099999999999985 -4.6529446962040307e-14 1.5509815654013436e-14
  endloop
endfacet
facet normal -1.1877329880544467e-15 6.313357796749011e-18 -1.0
  outer loop
    vertex 4.099999999999985 -4.6529446962040307e-14 1.5509815654013436e-14
    vertex 0.7999999999999862 2.4999999999999374 3.2703643094582664e-14
    vertex 2.299999999999984 1.4999999999999676 1.578384419929528e-14
  endloop
endfacet
facet normal -1.1877329880544467e-15 6.313357796749011e-18 -1.0
  outer loop
    vertex 2.299999999999984 1.4999999999999676 1.578384419929528e-14
    vertex 0.7999999999999862 2.4999999999999374 3.2703643094582664e-14
    vertex 1.299999999999988 2.4999999999999485 2.706371012948687e-14
  endloop
endfacet
facet normal -1.1877329880544467e-15 6.313357796749011e-18 -1.0
  outer loop
    vertex 4.099999999999985 -4.6529446962040307e-14 1.5509815654013436e-14
    vertex 2.299999999999984 1.4999999999999676 1.578384419929528e-14
    vertex 4.500000000000003 1.499999999999968 6.944167463274199e-15
  endloop
endfacet
facet normal -1.1877329880544467e-15 6.313357796749011e-18 -1.0
  outer loop
    vertex 4.099999999999985 -4.6529446962040307e-14 1.5509815654013436e-14
    vertex 4.500000000000003 1.499999999999968 6.944167463274199e-15
    vertex 4.099999999999991 -1.000000000000011 -4.229949723821846e-15
  endloop
endfacet
facet normal -1.1877329880544467e-15 6.313357796749011e-18 -1.0
  outer loop
    vertex 4.099999999999991 -1.000000000000011 -4.229949723821846e-15
    vertex 4.500000000000003 1.499999999999968 6.944167463274199e-15
    vertex 4.59999999999999 -1.000000000000011 -4.229949723821846e-15
  endloop
endfacet
facet normal -1.1877329880544467e-15 6.313357796749011e-18 -1.0
  outer loop
    vertex 4.59999999999999 -1.000000000000011 -4.229949723821846e-15
    vertex 4.500000000000003 1.499999999999968 6.944167463274199e-15
    vertex 4.500000000000009 15.49999999999999 9.764133945822096e-15
  endloop
endfacet
facet normal -1.0 -4.229949723821878e-15 7.049916206369744e-16
  outer loop
    vertex 4.099999999999994 -2.3969715101657127e-14 10.00000000000001
    vertex 4.099999999999991 -1.000000000000011 -4.229949723821846e-15
    vertex 4.099999999999997 -1.0000000000000338 10.000000000000004
  endloop
endfacet
facet normal -1.0 -4.229949723821878e-15 7.049916206369744e-16
  outer loop
    vertex 4.099999999999991 -1.000000000000011 -4.229949723821846e-15
    vertex 4.099999999999994 -2.3969715101657127e-14 10.00000000000001
    vertex 4.099999999999985 -4.6529446962040307e-14 1.5509815654013436e-14
  endloop
endfacet
facet normal -1.0 2.4674706722294133e-15 3.524958103184938e-17
  outer loop
    vertex 4.100000000000009 17.99999999999999 10.000000000000018
    vertex 4.100000000000007 16.999999999999993 8.459899447643692e-15
    vertex 4.100000000000007 16.99999999999999 10.000000000000014
  endloop
endfacet
facet normal -1.0 2.4674706722294133e-15 3.524958103184938e-17
  outer loop
    vertex 4.100000000000007 16.999999999999993 8.459899447643692e-15
    vertex 4.100000000000009 17.99999999999999 10.000000000000018
    vertex 4.100000000000009 17.99999999999999 8.459899447643692e-15
  endloop
endfacet
facet normal 0.0 1.0 0.0
  outer loop
    vertex 4.100000000000009 17.99999999999999 10.000000000000018
    vertex 4.600000000000011 17.99999999999999 1.057487430955461e-14
    vertex 4.100000000000009 17.99999999999999 8.459899447643692e-15
  endloop
endfacet
facet normal 0.0 1.0 0.0
  outer loop
    vertex 4.600000000000011 17.99999999999999 1.057487430955461e-14
    vertex 4.100000000000009 17.99999999999999 10.000000000000018
    vertex 4.6000000000000085 17.99999999999999 10.000000000000018
  endloop
endfacet
facet normal -2.2559731860382883e-14 1.0 -3.3839597790574638e-15
  outer loop
    vertex 0.7999999999999862 2.4999999999999374 3.2703643094582664e-14
    vertex 1.3000000000000023 2.4999999999999822 10.00000000000001
    vertex 1.299999999999988 2.4999999999999485 2.706371012948687e-14
  endloop
endfacet
facet normal -2.2559731860382883e-14 1.0 -3.3839597790574638e-15
  outer loop
    vertex 1.3000000000000023 2.4999999999999822 10.00000000000001
    vertex 0.7999999999999862 2.4999999999999374 3.2703643094582664e-14
    vertex 0.7999999999999918 2.499999999999971 10.0
  endloop
endfacet
facet normal -0.7071067811865399 0.7071067811865551 -8.962329401209713e-16
  outer loop
    vertex -0.20000000000000634 1.499999999999979 10.000000000000002
    vertex 0.7999999999999862 2.4999999999999374 3.2703643094582664e-14
    vertex -0.20000000000001478 1.4999999999999734 1.2963877716747384e-14
  endloop
endfacet
facet normal -0.7071067811865399 0.7071067811865551 -8.962329401209713e-16
  outer loop
    vertex 0.7999999999999862 2.4999999999999374 3.2703643094582664e-14
    vertex -0.20000000000000634 1.499999999999979 10.000000000000002
    vertex 0.7999999999999918 2.499999999999971 10.0
  endloop
endfacet
facet normal 1.610656033276759e-30 -1.0 1.1279865930191604e-15
  outer loop
    vertex 4.099999999999994 -2.3969715101657127e-14 10.00000000000001
    vertex -0.20000000000001197 -3.524958103184872e-14 1.578384419929528e-14
    vertex 4.099999999999985 -4.6529446962040307e-14 1.5509815654013436e-14
  endloop
endfacet
facet normal 1.610656033276759e-30 -1.0 1.1279865930191604e-15
  outer loop
    vertex -0.20000000000001197 -3.524958103184872e-14 1.578384419929528e-14
    vertex 4.099999999999994 -2.3969715101657127e-14 10.00000000000001
    vertex -0.20000000000001197 -3.524958103184872e-14 10.000000000000004
  endloop
endfacet
facet normal 0.7071067811865442 0.7071067811865508 -2.1377567461468354e-15
  outer loop
    vertex 4.6000000000000085 17.99999999999999 10.000000000000018
    vertex 7.600000000000011 15.000000000000007 1.973976537783528e-14
    vertex 4.600000000000011 17.99999999999999 1.057487430955461e-14
  endloop
endfacet
facet normal 0.7071067811865442 0.7071067811865508 -2.1377567461468354e-15
  outer loop
    vertex 7.600000000000011 15.000000000000007 1.973976537783528e-14
    vertex 4.6000000000000085 17.99999999999999 10.000000000000018
    vertex 5.600000000000011 16.99999999999999 10.000000000000012
  endloop
endfacet
facet normal 0.7071067811865442 0.7071067811865508 -2.1377567461468354e-15
  outer loop
    vertex 5.600000000000011 16.99999999999999 10.000000000000012
    vertex 7.600000000000093 14.999999999999993 25.000000000000004
    vertex 7.600000000000011 15.000000000000007 1.973976537783528e-14
  endloop
endfacet
facet normal 0.7071067811865442 0.7071067811865508 -2.1377567461468354e-15
  outer loop
    vertex 7.600000000000093 14.999999999999993 25.000000000000004
    vertex 5.600000000000011 16.99999999999999 10.000000000000012
    vertex 5.600000000000093 16.999999999999982 23.000000000000007
  endloop
endfacet
facet normal 0.7071067811865442 0.7071067811865508 -2.1377567461468354e-15
  outer loop
    vertex 7.600000000000093 14.999999999999993 25.000000000000004
    vertex 5.600000000000093 16.999999999999982 23.000000000000007
    vertex 5.6000000000001 16.999999999999982 25.00000000000001
  endloop
endfacet
facet normal 5.6399329650957886e-15 -1.0 -1.9739765377835316e-15
  outer loop
    vertex 4.599999999999999 -1.0000000000000282 9.999999999999995
    vertex 4.099999999999991 -1.000000000000011 -4.229949723821846e-15
    vertex 4.59999999999999 -1.000000000000011 -4.229949723821846e-15
  endloop
endfacet
facet normal 5.6399329650957886e-15 -1.0 -1.9739765377835316e-15
  outer loop
    vertex 4.099999999999991 -1.000000000000011 -4.229949723821846e-15
    vertex 4.599999999999999 -1.0000000000000282 9.999999999999995
    vertex 4.099999999999997 -1.0000000000000338 10.000000000000004
  endloop
endfacet
facet normal 0.0 -1.0 0.0
  outer loop
    vertex 4.500000000000007 15.49999999999999 10.000000000000004
    vertex 2.3000000000000043 15.49999999999999 1.0143911234199486e-14
    vertex 4.500000000000009 15.49999999999999 9.764133945822096e-15
  endloop
endfacet
facet normal 0.0 -1.0 0.0
  outer loop
    vertex 2.3000000000000043 15.49999999999999 1.0143911234199486e-14
    vertex 4.500000000000007 15.49999999999999 10.000000000000004
    vertex 2.3000000000000043 15.49999999999999 10.000000000000004
  endloop
endfacet
facet normal -1.0 6.013163823080067e-16 6.317809523400579e-15
  outer loop
    vertex 5.600000000000093 16.999999999999982 23.000000000000007
    vertex 5.6 -2.3969715101657127e-14 10.00000000000001
    vertex 5.600000000000083 -2.9785895971912165e-14 23.000000000000007
  endloop
endfacet
facet normal -1.0 6.013163823080067e-16 6.317809523400579e-15
  outer loop
    vertex 5.6 -2.3969715101657127e-14 10.00000000000001
    vertex 5.600000000000093 16.999999999999982 23.000000000000007
    vertex 5.600000000000011 16.99999999999999 10.000000000000012
  endloop
endfacet
facet normal -1.0 9.399888275159645e-16 4.229949723821849e-16
  outer loop
    vertex -0.20000000000000634 1.499999999999979 10.000000000000002
    vertex -0.20000000000001197 -3.524958103184872e-14 1.578384419929528e-14
    vertex -0.20000000000001197 -3.524958103184872e-14 10.000000000000004
  endloop
endfacet
facet normal -1.0 9.399888275159645e-16 4.229949723821849e-16
  outer loop
    vertex -0.20000000000001197 -3.524958103184872e-14 1.578384419929528e-14
    vertex -0.20000000000000634 1.499999999999979 10.000000000000002
    vertex -0.20000000000001478 1.4999999999999734 1.2963877716747384e-14
  endloop
endfacet
facet normal -2.2559731860382918e-14 -1.0 1.1279865930191526e-15
  outer loop
    vertex 1.300000000000006 14.499999999999996 9.999999999999996
    vertex 0.800000000000004 14.499999999999996 1.4373860958021334e-14
    vertex 1.3000000000000131 14.499999999999984 1.4373860958021334e-14
  endloop
endfacet
facet normal -2.2559731860382918e-14 -1.0 1.1279865930191526e-15
  outer loop
    vertex 0.800000000000004 14.499999999999996 1.4373860958021334e-14
    vertex 1.300000000000006 14.499999999999996 9.999999999999996
    vertex 0.8000000000000036 14.500000000000007 9.999999999999996
  endloop
endfacet
facet normal -9.714351694655033e-16 -3.6322083497320674e-16 1.0
  outer loop
    vertex 4.099999999999994 -2.3969715101657127e-14 10.00000000000001
    vertex -0.20000000000000634 1.499999999999979 10.000000000000002
    vertex -0.20000000000001197 -3.524958103184872e-14 10.000000000000004
  endloop
endfacet
facet normal -9.714351694655033e-16 -3.6322083497320674e-16 1.0
  outer loop
    vertex -0.20000000000000634 1.499999999999979 10.000000000000002
    vertex 4.099999999999994 -2.3969715101657127e-14 10.00000000000001
    vertex 0.7999999999999918 2.499999999999971 10.0
  endloop
endfacet
facet normal -9.714351694655033e-16 -3.6322083497320674e-16 1.0
  outer loop
    vertex 0.7999999999999918 2.499999999999971 10.0
    vertex 4.099999999999994 -2.3969715101657127e-14 10.00000000000001
    vertex 2.299999999999995 1.499999999999979 10.000000000000004
  endloop
endfacet
facet normal -9.714351694655033e-16 -3.6322083497320674e-16 1.0
  outer loop
    vertex 0.7999999999999918 2.499999999999971 10.0
    vertex 2.299999999999995 1.499999999999979 10.000000000000004
    vertex 1.3000000000000023 2.4999999999999822 10.00000000000001
  endloop
endfacet
facet normal -9.714351694655033e-16 -3.6322083497320674e-16 1.0
  outer loop
    vertex 2.299999999999995 1.499999999999979 10.000000000000004
    vertex 4.099999999999994 -2.3969715101657127e-14 10.00000000000001
    vertex 4.500000000000003 1.4999999999999793 10.000000000000004
  endloop
endfacet
facet normal -9.714351694655033e-16 -3.6322083497320674e-16 1.0
  outer loop
    vertex 4.500000000000003 1.4999999999999793 10.000000000000004
    vertex 4.099999999999994 -2.3969715101657127e-14 10.00000000000001
    vertex 4.099999999999997 -1.0000000000000338 10.000000000000004
  endloop
endfacet
facet normal -9.714351694655033e-16 -3.6322083497320674e-16 1.0
  outer loop
    vertex 4.500000000000003 1.4999999999999793 10.000000000000004
    vertex 4.099999999999997 -1.0000000000000338 10.000000000000004
    vertex 4.599999999999999 -1.0000000000000282 9.999999999999995
  endloop
endfacet
facet normal -9.714351694655033e-16 -3.6322083497320674e-16 1.0
  outer loop
    vertex 4.500000000000003 1.4999999999999793 10.000000000000004
    vertex 4.599999999999999 -1.0000000000000282 9.999999999999995
    vertex 4.500000000000007 15.49999999999999 10.000000000000004
  endloop
endfacet
facet normal -9.714351694655033e-16 -3.6322083497320674e-16 1.0
  outer loop
    vertex 0.8000000000000036 14.500000000000007 9.999999999999996
    vertex -0.19999999999999346 16.999999999999986 10.000000000000014
    vertex -0.1999999999999963 15.5 10.000000000000009
  endloop
endfacet
facet normal -9.714351694655033e-16 -3.6322083497320674e-16 1.0
  outer loop
    vertex -0.19999999999999346 16.999999999999986 10.000000000000014
    vertex 0.8000000000000036 14.500000000000007 9.999999999999996
    vertex 4.100000000000007 16.99999999999999 10.000000000000014
  endloop
endfacet
facet normal -9.714351694655033e-16 -3.6322083497320674e-16 1.0
  outer loop
    vertex 4.100000000000007 16.99999999999999 10.000000000000014
    vertex 0.8000000000000036 14.500000000000007 9.999999999999996
    vertex 2.3000000000000043 15.49999999999999 10.000000000000004
  endloop
endfacet
facet normal -9.714351694655033e-16 -3.6322083497320674e-16 1.0
  outer loop
    vertex 2.3000000000000043 15.49999999999999 10.000000000000004
    vertex 0.8000000000000036 14.500000000000007 9.999999999999996
    vertex 1.300000000000006 14.499999999999996 9.999999999999996
  endloop
endfacet
facet normal -9.714351694655033e-16 -3.6322083497320674e-16 1.0
  outer loop
    vertex 4.100000000000007 16.99999999999999 10.000000000000014
    vertex 2.3000000000000043 15.49999999999999 10.000000000000004
    vertex 4.500000000000007 15.49999999999999 10.000000000000004
  endloop
endfacet
facet normal -9.714351694655033e-16 -3.6322083497320674e-16 1.0
  outer loop
    vertex 4.100000000000007 16.99999999999999 10.000000000000014
    vertex 4.500000000000007 15.49999999999999 10.000000000000004
    vertex 4.100000000000009 17.99999999999999 10.000000000000018
  endloop
endfacet
facet normal -9.714351694655033e-16 -3.6322083497320674e-16 1.0
  outer loop
    vertex 4.100000000000009 17.99999999999999 10.000000000000018
    vertex 4.500000000000007 15.49999999999999 10.000000000000004
    vertex 4.6000000000000085 17.99999999999999 10.000000000000018
  endloop
endfacet
facet normal -9.714351694655033e-16 -3.6322083497320674e-16 1.0
  outer loop
    vertex 4.6000000000000085 17.99999999999999 10.000000000000018
    vertex 4.500000000000007 15.49999999999999 10.000000000000004
    vertex 4.599999999999999 -1.0000000000000282 9.999999999999995
  endloop
endfacet
facet normal -9.714351694655033e-16 -3.6322083497320674e-16 1.0
  outer loop
    vertex 4.6000000000000085 17.99999999999999 10.000000000000018
    vertex 4.599999999999999 -1.0000000000000282 9.999999999999995
    vertex 5.6 -2.3969715101657127e-14 10.00000000000001
  endloop
endfacet
facet normal -9.714351694655033e-16 -3.6322083497320674e-16 1.0
  outer loop
    vertex 4.6000000000000085 17.99999999999999 10.000000000000018
    vertex 5.6 -2.3969715101657127e-14 10.00000000000001
    vertex 5.600000000000011 16.99999999999999 10.000000000000012
  endloop
endfacet
facet normal -1.0 3.236027111120535e-16 -7.049916206369771e-17
  outer loop
    vertex 4.500000000000003 1.4999999999999793 10.000000000000004
    vertex 4.500000000000009 15.49999999999999 9.764133945822096e-15
    vertex 4.500000000000003 1.499999999999968 6.944167463274199e-15
  endloop
endfacet
facet normal -1.0 3.236027111120535e-16 -7.049916206369771e-17
  outer loop
    vertex 4.500000000000009 15.49999999999999 9.764133945822096e-15
    vertex 4.500000000000003 1.4999999999999793 10.000000000000004
    vertex 4.500000000000007 15.49999999999999 10.000000000000004
  endloop
endfacet
facet normal -0.7071067811865469 -0.7071067811865482 3.8579563647590504e-16
  outer loop
    vertex 0.800000000000004 14.499999999999996 1.4373860958021334e-14
    vertex -0.1999999999999963 15.5 10.000000000000009
    vertex -0.1999999999999963 15.5 1.0143911234199486e-14
  endloop
endfacet
facet normal -0.7071067811865469 -0.7071067811865482 3.8579563647590504e-16
  outer loop
    vertex -0.1999999999999963 15.5 10.000000000000009
    vertex 0.800000000000004 14.499999999999996 1.4373860958021334e-14
    vertex 0.8000000000000036 14.500000000000007 9.999999999999996
  endloop
endfacet
facet normal 1.0 -1.843824238589004e-15 5.639932965095783e-16
  outer loop
    vertex 7.599999999999986 1.9999999999999656 5.639932965095795e-15
    vertex 7.600000000000093 14.999999999999993 25.000000000000004
    vertex 7.600000000000071 1.999999999999947 24.99999999999999
  endloop
endfacet
facet normal 1.0 -1.843824238589004e-15 5.639932965095783e-16
  outer loop
    vertex 7.600000000000093 14.999999999999993 25.000000000000004
    vertex 7.599999999999986 1.9999999999999656 5.639932965095795e-15
    vertex 7.600000000000011 15.000000000000007 1.973976537783528e-14
  endloop
endfacet
facet normal 0.7071067811865449 -0.7071067811865502 -2.865588345300104e-15
  outer loop
    vertex 7.599999999999986 1.9999999999999656 5.639932965095795e-15
    vertex 4.599999999999999 -1.0000000000000282 9.999999999999995
    vertex 4.59999999999999 -1.000000000000011 -4.229949723821846e-15
  endloop
endfacet
facet normal 0.7071067811865449 -0.7071067811865502 -2.865588345300104e-15
  outer loop
    vertex 4.599999999999999 -1.0000000000000282 9.999999999999995
    vertex 7.599999999999986 1.9999999999999656 5.639932965095795e-15
    vertex 5.6 -2.3969715101657127e-14 10.00000000000001
  endloop
endfacet
facet normal 0.7071067811865449 -0.7071067811865502 -2.865588345300104e-15
  outer loop
    vertex 5.6 -2.3969715101657127e-14 10.00000000000001
    vertex 7.599999999999986 1.9999999999999656 5.639932965095795e-15
    vertex 7.600000000000071 1.999999999999947 24.99999999999999
  endloop
endfacet
facet normal 0.7071067811865449 -0.7071067811865502 -2.865588345300104e-15
  outer loop
    vertex 5.6 -2.3969715101657127e-14 10.00000000000001
    vertex 7.600000000000071 1.999999999999947 24.99999999999999
    vertex 5.600000000000083 -2.9785895971912165e-14 23.000000000000007
  endloop
endfacet
facet normal 0.7071067811865449 -0.7071067811865502 -2.865588345300104e-15
  outer loop
    vertex 5.600000000000083 -2.9785895971912165e-14 23.000000000000007
    vertex 7.600000000000071 1.999999999999947 24.99999999999999
    vertex 5.6000000000000885 -3.066713549770838e-14 25.00000000000001
  endloop
endfacet
facet normal -1.0 -2.3499720687900473e-16 3.1724622928663837e-16
  outer loop
    vertex -0.19999999999999346 16.999999999999986 10.000000000000014
    vertex -0.1999999999999963 15.5 1.0143911234199486e-14
    vertex -0.1999999999999963 15.5 10.000000000000009
  endloop
endfacet
facet normal -1.0 -2.3499720687900473e-16 3.1724622928663837e-16
  outer loop
    vertex -0.1999999999999963 15.5 1.0143911234199486e-14
    vertex -0.19999999999999346 16.999999999999986 10.000000000000014
    vertex -0.19999999999999982 17.000000000000004 8.733927992925537e-15
  endloop
endfacet
facet normal -1.6022536832658637e-16 1.0 -1.1279865930191598e-15
  outer loop
    vertex 2.299999999999984 1.4999999999999676 1.578384419929528e-14
    vertex 4.500000000000003 1.4999999999999793 10.000000000000004
    vertex 4.500000000000003 1.499999999999968 6.944167463274199e-15
  endloop
endfacet
facet normal -1.6022536832658637e-16 1.0 -1.1279865930191598e-15
  outer loop
    vertex 4.500000000000003 1.4999999999999793 10.000000000000004
    vertex 2.299999999999984 1.4999999999999676 1.578384419929528e-14
    vertex 2.299999999999995 1.499999999999979 10.000000000000004
  endloop
endfacet
facet normal 0.7071067811865488 -0.7071067811865464 6.509064841055003e-16
  outer loop
    vertex 2.3000000000000043 15.49999999999999 1.0143911234199486e-14
    vertex 1.300000000000006 14.499999999999996 9.999999999999996
    vertex 1.3000000000000131 14.499999999999984 1.4373860958021334e-14
  endloop
endfacet
facet normal 0.7071067811865488 -0.7071067811865464 6.509064841055003e-16
  outer loop
    vertex 1.300000000000006 14.499999999999996 9.999999999999996
    vertex 2.3000000000000043 15.49999999999999 1.0143911234199486e-14
    vertex 2.3000000000000043 15.49999999999999 10.000000000000004
  endloop
endfacet
facet normal 3.7726578617870465e-15 -2.453786095925238e-16 1.0
  outer loop
    vertex 5.6000000000000885 -3.066713549770838e-14 25.00000000000001
    vertex 4.1000000000000885 16.999999999999986 25.00000000000001
    vertex 4.1000000000000885 -3.066713549770838e-14 25.00000000000001
  endloop
endfacet
facet normal 3.7726578617870465e-15 -2.453786095925238e-16 1.0
  outer loop
    vertex 4.1000000000000885 16.999999999999986 25.00000000000001
    vertex 5.6000000000000885 -3.066713549770838e-14 25.00000000000001
    vertex 5.6000000000001 16.999999999999982 25.00000000000001
  endloop
endfacet
facet normal 3.7726578617870465e-15 -2.453786095925238e-16 1.0
  outer loop
    vertex 5.6000000000001 16.999999999999982 25.00000000000001
    vertex 5.6000000000000885 -3.066713549770838e-14 25.00000000000001
    vertex 7.600000000000071 1.999999999999947 24.99999999999999
  endloop
endfacet
facet normal 3.7726578617870465e-15 -2.453786095925238e-16 1.0
  outer loop
    vertex 5.6000000000001 16.999999999999982 25.00000000000001
    vertex 7.600000000000071 1.999999999999947 24.99999999999999
    vertex 7.600000000000093 14.999999999999993 25.000000000000004
  endloop
endfacet
facet normal 1.8799776550319184e-15 1.0 -6.123582104123712e-30
  outer loop
    vertex 4.100000000000087 16.999999999999986 24.50000000000001
    vertex 5.6000000000001 16.999999999999982 25.00000000000001
    vertex 5.600000000000093 16.999999999999982 23.000000000000007
  endloop
endfacet
facet normal 1.8799776550319184e-15 1.0 -6.123582104123712e-30
  outer loop
    vertex 5.6000000000001 16.999999999999982 25.00000000000001
    vertex 4.100000000000087 16.999999999999986 24.50000000000001
    vertex 4.1000000000000885 16.999999999999986 25.00000000000001
  endloop
endfacet
facet normal 0.7071067811865468 0.7071067811865483 -2.492833343382771e-15
  outer loop
    vertex 1.299999999999988 2.4999999999999485 2.706371012948687e-14
    vertex 2.299999999999995 1.499999999999979 10.000000000000004
    vertex 2.299999999999984 1.4999999999999676 1.578384419929528e-14
  endloop
endfacet
facet normal 0.7071067811865468 0.7071067811865483 -2.492833343382771e-15
  outer loop
    vertex 2.299999999999995 1.499999999999979 10.000000000000004
    vertex 1.299999999999988 2.4999999999999485 2.706371012948687e-14
    vertex 1.3000000000000023 2.4999999999999822 10.00000000000001
  endloop
endfacet
facet normal -4.6390773516089377e-32 -1.0 -5.336181116903163e-16
  outer loop
    vertex 5.6000000000000885 -3.066713549770838e-14 25.00000000000001
    vertex 4.100000000000087 -3.049088759254914e-14 24.50000000000001
    vertex 5.600000000000083 -2.9785895971912165e-14 23.000000000000007
  endloop
endfacet
facet normal -4.6390773516089377e-32 -1.0 -5.336181116903163e-16
  outer loop
    vertex 4.100000000000087 -3.049088759254914e-14 24.50000000000001
    vertex 5.6000000000000885 -3.066713549770838e-14 25.00000000000001
    vertex 4.1000000000000885 -3.066713549770838e-14 25.00000000000001
  endloop
endfacet
facet normal -0.707106781186548 2.0537430741331026e-16 -0.707106781186547
  outer loop
    vertex 4.100000000000087 16.999999999999986 24.50000000000001
    vertex 5.600000000000083 -2.9785895971912165e-14 23.000000000000007
    vertex 4.100000000000087 -3.049088759254914e-14 24.50000000000001
  endloop
endfacet
facet normal -0.707106781186548 2.0537430741331026e-16 -0.707106781186547
  outer loop
    vertex 5.600000000000083 -2.9785895971912165e-14 23.000000000000007
    vertex 4.100000000000087 16.999999999999986 24.50000000000001
    vertex 5.600000000000093 16.999999999999982 23.000000000000007
  endloop
endfacet
facet normal -1.0 0.0 3.7726578617870465e-15
  outer loop
    vertex 4.1000000000000885 16.999999999999986 25.00000000000001
    vertex 4.100000000000087 -3.049088759254914e-14 24.50000000000001
    vertex 4.1000000000000885 -3.066713549770838e-14 25.00000000000001
  endloop
endfacet
facet normal -1.0 0.0 3.7726578617870465e-15
  outer loop
    vertex 4.100000000000087 -3.049088759254914e-14 24.50000000000001
    vertex 4.1000000000000885 16.999999999999986 25.00000000000001
    vertex 4.100000000000087 16.999999999999986 24.50000000000001
  endloop
endfacet
facet normal 6.558061587320694e-16 1.0 1.127986593019158e-15
  outer loop
    vertex -0.19999999999999982 17.000000000000004 8.733927992925537e-15
    vertex 4.100000000000007 16.99999999999999 10.000000000000014
    vertex 4.100000000000007 16.999999999999993 8.459899447643692e-15
  endloop
endfacet
facet normal 6.558061587320694e-16 1.0 1.127986593019158e-15
  outer loop
    vertex 4.100000000000007 16.99999999999999 10.000000000000014
    vertex -0.19999999999999982 17.000000000000004 8.733927992925537e-15
    vertex -0.19999999999999346 16.999999999999986 10.000000000000014
  endloop
endfacet
endsolid CableClipExtra90
